<svg xmlns="http://www.w3.org/2000/svg" viewBox="0 0 256 256">
  <defs>
    <radialGradient id="glow" cx="50%" cy="46%" r="55%">
      <stop offset="0%" stop-color="#F15A24" stop-opacity="0.30"/>
      <stop offset="55%" stop-color="#F15A24" stop-opacity="0.10"/>
      <stop offset="100%" stop-color="#F15A24" stop-opacity="0"/>
    </radialGradient>
  </defs>
  <rect width="256" height="256" rx="56" fill="#10131A"/>
  <circle cx="128" cy="118" r="98" fill="url(#glow)"/>
  <!-- Same flat nut glyph used for the Document bot inside the app
       (assets/icons/almond.svg), scaled up and flat-filled with the
       brand accent, no gradient, so the taskbar/window icon reads as
       one family with the in-app bot icons instead of the old
       abstract leaf mark. -->
  <g transform="translate(19.52,29.4) scale(9.04)">
    <path d="M12 1.5 C15 1.5 18.2 3.3 19.6 6.1 C20.6 8.2 20.6 13.4 19.6 15.6 C18.2 18.5 15 20.3 12 20.3 C9 20.3 5.8 18.5 4.4 15.6 C3.4 13.4 3.4 8.2 4.4 6.1 C5.8 3.3 9 1.5 12 1.5 Z" fill="#F15A24"/>
    <rect x="8.6" y="10" width="1.6" height="2.4" rx="0.8" fill="#10131A" transform="rotate(-14 9.4 11.2)"/>
    <rect x="13.8" y="10" width="1.6" height="2.4" rx="0.8" fill="#10131A" transform="rotate(14 14.6 11.2)"/>
  </g>
</svg>
